# xmcd
#
# Track frame offsets: 
#        150
#        9633
#        21758
#        33608
#        45406
#        57434
#        74462
#        87895
#        99625
#        122872
#        144521
#        161017
#        188870
#        200378
#
# Disc length: 3284 seconds
#
# Revision: 1
# Processed by: cddbd v1.5.2PL0 Copyright (c) Steve Scherf et al.
# Submitted via: ExactAudioCopy v0.99pb5
#
DISCID=c20cd20e
DTITLE=B.B. King - B.B. King - Playlist and Plus  [CD1]
DYEAR=2008
DGENRE=Blues
TTITLE0=Sneakin' Around
TTITLE1=How Blue Can You Get 
TTITLE2=Help The Poor
TTITLE3=Never Trust A Woman
TTITLE4=Everyday I Have The Blues
TTITLE5=Sweet Little Angel
TTITLE6=Please Love Me
TTITLE7=All Over Again
TTITLE8=Don't Answer The Door
TTITLE9=Gambler's Blues
TTITLE10=Tired Of Your Jive
TTITLE11=Sweet Sixteen (Parts 1 and 2)
TTITLE12=Paying The Cost To Be The Boss
TTITLE13=Lucille
EXTD=
EXTT0=
EXTT1=
EXTT2=
EXTT3=
EXTT4=
EXTT5=
EXTT6=
EXTT7=
EXTT8=
EXTT9=
EXTT10=
EXTT11=
EXTT12=
EXTT13=
PLAYORDER=
